<?xml version="1.0" standalone="no"?>
<!DOCTYPE svg PUBLIC "-//W3C//DTD SVG 20010904//EN"
 "http://www.w3.org/TR/2001/REC-SVG-20010904/DTD/svg10.dtd">
<svg version="1.0" xmlns="http://www.w3.org/2000/svg"
 width="1024.000000pt" height="1024.000000pt" viewBox="0 0 1024.000000 1024.000000"
 preserveAspectRatio="xMidYMid meet">

<g transform="translate(0.000000,1024.000000) scale(0.100000,-0.100000)"
fill="#000000" stroke="none">
<path d="M7 10233 c-4 -3 -7 -2307 -7 -5120 l0 -5113 5120 0 5120 0 0 5120 0
5120 -5113 0 c-2813 0 -5117 -3 -5120 -7z m5303 -2018 c355 -44 701 -165 1043
-367 155 -91 272 -181 423 -322 192 -182 309 -327 454 -566 191 -314 293 -573
356 -910 21 -109 26 -173 29 -335 2 -110 1 -190 -1 -177 -3 12 -10 20 -15 17
-25 -16 -39 27 -49 142 -23 269 -34 340 -90 548 -50 189 -123 363 -235 560
-294 519 -672 873 -1176 1102 -381 174 -653 229 -1069 220 -202 -4 -240 -8
-375 -36 -393 -83 -779 -263 -1080 -505 -196 -158 -390 -375 -549 -616 -260
-392 -383 -778 -425 -1325 -6 -68 -14 -121 -20 -123 -6 -2 -11 -10 -11 -17 0
-8 -5 -17 -11 -20 -7 -5 -8 4 -4 27 5 25 2 39 -9 51 -18 17 -23 141 -7 151 5
3 11 17 13 31 3 15 1 22 -5 18 -16 -10 -1 152 28 312 74 405 248 783 533 1155
91 118 368 392 483 478 388 289 860 472 1329 516 100 9 330 4 440 -9z m-20
-181 c275 -31 509 -99 758 -219 187 -90 266 -138 418 -251 203 -150 348 -302
523 -547 150 -212 313 -532 356 -698 9 -35 27 -101 40 -146 51 -177 85 -568
66 -753 -6 -54 -8 -63 -10 -32 -1 42 -18 72 -40 72 -7 0 -9 -15 -6 -40 3 -22
1 -40 -3 -40 -5 0 -9 84 -9 188 0 463 -118 860 -380 1277 -350 557 -870 930
-1493 1069 -337 75 -676 66 -1009 -24 -222 -61 -519 -191 -689 -303 -318 -208
-641 -573 -823 -930 -191 -375 -277 -754 -268 -1182 3 -99 3 -163 1 -142 -2
29 -7 37 -23 37 -11 0 -19 7 -19 18 0 13 -2 14 -9 4 -6 -9 -8 -5 -9 15 0 15
-4 82 -7 148 -8 142 12 365 50 550 50 242 166 532 297 742 154 246 386 518
568 666 242 196 576 365 900 456 78 22 315 67 385 74 102 10 313 6 435 -9z
m-456 -250 c7 -19 -10 -44 -31 -44 -17 0 -27 24 -19 45 7 20 42 19 50 -1z
m260 -35 c8 -49 31 -97 60 -123 26 -23 79 -46 106 -46 32 0 23 -18 -12 -25
-90 -19 -142 -75 -154 -168 -4 -26 -10 -47 -14 -47 -4 0 -12 24 -19 54 -7 30
-25 73 -42 95 -24 34 -39 44 -89 58 -33 9 -60 20 -60 24 0 4 17 10 37 14 83
15 135 66 156 154 6 28 15 51 18 51 4 0 9 -18 13 -41z m243 25 c6 -16 -11 -34
-33 -34 -14 0 -26 28 -18 41 9 15 44 10 51 -7z m343 -89 c19 -23 8 -50 -20
-50 -16 0 -26 6 -28 18 -4 18 14 47 28 47 4 0 13 -7 20 -15z m-1222 -21 c2
-11 -4 -26 -12 -33 -31 -26 -71 14 -45 45 17 21 53 14 57 -12z m1452 -69 c17
-21 4 -65 -19 -65 -34 0 -51 12 -51 34 0 42 45 62 70 31z m-382 -105 c13 -26
29 -39 62 -51 38 -15 42 -18 25 -25 -84 -31 -83 -30 -110 -109 -5 -16 -11 -10
-27 33 -18 48 -23 53 -64 63 -24 6 -46 15 -49 19 -2 4 14 13 37 21 43 14 72
49 84 104 l7 30 9 -25 c5 -14 17 -41 26 -60z m-1404 -25 c179 -47 295 -223
265 -405 -13 -81 -40 -137 -92 -190 -58 -59 -102 -86 -171 -106 -73 -20 -175
-14 -239 14 -43 19 -132 90 -123 99 2 2 24 -6 48 -18 36 -19 59 -23 138 -24
84 0 101 3 145 27 97 51 146 129 153 242 8 136 -63 249 -185 295 -65 24 -160
29 -206 12 -35 -14 -40 -14 -32 -1 9 15 79 49 122 59 58 14 113 12 177 -4z
m599 -17 c13 -20 -6 -48 -34 -48 -20 0 -36 40 -24 60 10 16 46 8 58 -12z
m1277 -93 c6 -8 9 -23 5 -35 -10 -31 -59 -24 -63 9 -6 37 34 55 58 26z m291
-153 c35 -21 36 -30 5 -42 -15 -5 -27 -20 -31 -39 -7 -33 -25 -33 -25 -1 0 11
-11 27 -25 36 -30 20 -32 31 -4 39 11 4 26 21 32 38 11 30 12 30 15 9 2 -14
17 -31 33 -40z m-1035 -156 c170 -95 221 -135 122 -95 -29 11 -62 21 -73 20
-10 0 -34 9 -52 20 -18 11 -37 18 -41 15 -5 -3 -32 6 -61 19 -62 30 -71 31
-122 5 -22 -12 -45 -18 -51 -14 -7 5 -8 3 -3 -6 6 -9 2 -10 -15 -5 -15 5 -20
4 -16 -3 4 -6 -3 -16 -15 -22 -12 -7 -19 -8 -15 -2 11 18 -57 5 -117 -23 -34
-16 -62 -24 -68 -18 -8 8 324 203 348 203 6 0 87 -42 179 -94z m554 -2 c0 -2
-7 -4 -15 -4 -8 0 -21 -14 -28 -32 l-13 -32 -13 32 c-7 18 -20 32 -27 32 -21
0 -17 18 5 25 11 3 23 15 26 26 6 18 9 17 36 -12 16 -17 29 -33 29 -35z
m-2320 -14 c0 -24 -26 -38 -42 -22 -16 16 -2 42 22 42 13 0 20 -7 20 -20z
m3160 5 c23 -28 -9 -72 -45 -59 -36 14 -24 74 15 74 10 0 23 -7 30 -15z m-550
-40 c18 -21 5 -47 -22 -43 -26 3 -37 36 -16 49 18 12 24 11 38 -6z m-2690 -89
c-7 -9 -16 -16 -20 -16 -15 0 -20 32 -9 47 11 12 14 12 27 -1 13 -12 13 -18 2
-30z m3355 -11 c0 -13 -8 -21 -22 -23 -17 -3 -23 2 -23 16 0 10 3 22 7 26 13
13 38 1 38 -19z m-1215 -52 l0 -23 -475 0 c-467 0 -475 0 -475 20 0 19 8 20
418 23 593 4 532 6 532 -20z m-632 -96 c17 -20 1 -62 -23 -62 -36 0 -46 32
-19 59 19 19 28 20 42 3z m-140 -26 c2 -12 1 -33 -2 -46 -5 -20 -10 -22 -33
-16 -30 8 -38 28 -29 67 9 35 59 31 64 -5z m496 23 c10 -4 16 -18 16 -35 0
-22 -5 -29 -19 -29 -19 0 -51 24 -51 39 0 9 22 31 31 31 4 0 14 -3 23 -6z
m164 -42 c3 -41 2 -42 -17 -31 -15 10 -23 10 -35 0 -14 -12 -16 -9 -16 26 0
47 6 55 40 51 22 -3 25 -8 28 -46z m-91 -130 c144 -75 271 -144 281 -153 11
-9 25 -19 33 -22 8 -3 -4 -4 -27 -2 -91 8 -260 78 -449 184 -97 55 -115 59
-159 36 -15 -8 -33 -12 -39 -8 -6 3 -7 1 -3 -5 4 -7 -10 -20 -35 -32 -26 -14
-39 -17 -34 -8 3 7 0 5 -7 -4 -24 -29 -138 -85 -138 -68 0 6 8 10 19 10 22 0
44 23 33 35 -4 5 -1 5 7 0 8 -4 17 -2 22 6 7 11 9 11 9 1 0 -15 9 -7 40 32 14
18 14 19 -7 7 -13 -6 -23 -16 -23 -22 0 -6 -4 -8 -8 -5 -13 8 -72 -25 -65 -37
3 -6 1 -7 -5 -3 -14 8 -72 -20 -72 -35 0 -6 -4 -8 -8 -5 -5 3 -50 -15 -101
-40 -51 -25 -102 -44 -114 -42 -22 3 544 316 573 317 8 0 133 -61 277 -137z
m-229 -78 c26 -18 28 -50 5 -76 -20 -22 -45 -23 -83 -3 -33 17 -38 40 -14 73
18 26 59 29 92 6z m-375 -30 c-10 -7 -22 -13 -28 -13 -5 0 -2 4 8 10 9 6 15
14 12 20 -3 5 1 6 10 3 14 -6 14 -8 -2 -20z m-106 -50 c-3 -3 -12 -4 -19 -1
-8 3 -5 6 6 6 11 1 17 -2 13 -5z m1153 -99 l0 -25 -715 0 -715 0 0 25 0 25
715 0 715 0 0 -25z m-140 -104 c0 -42 20 -41 -586 -41 l-574 0 0 25 0 25 580
0 c346 0 580 -4 580 -9z m-10 -294 c0 -79 -3 -233 -7 -341 -5 -171 -8 -194
-19 -169 -7 15 -13 23 -13 18 -1 -17 -41 -12 -43 5 0 8 -4 -7 -7 -35 -4 -27
-10 107 -14 299 -7 284 -6 351 5 357 7 5 32 9 56 9 l42 0 0 -143z m-1010 -207
c0 -244 -3 -340 -11 -340 -6 0 -9 9 -6 20 3 11 1 23 -4 26 -5 3 -9 0 -9 -5 0
-15 -37 -14 -43 2 -4 9 -8 9 -15 -2 -13 -18 -17 70 -20 397 l-3 242 56 0 55 0
0 -340z m490 195 l0 -105 -45 0 -45 0 0 105 0 105 45 0 45 0 0 -105z m-130
-10 l0 -95 -65 0 c-36 0 -65 3 -65 8 0 23 25 91 43 115 16 23 71 67 85 67 1 0
2 -43 2 -95z m248 46 c22 -26 52 -95 52 -118 0 -21 -4 -23 -60 -23 l-60 0 0
96 0 96 28 -18 c15 -9 33 -25 40 -33z m-918 -116 c25 -14 24 -14 -20 -15 -92
-3 -407 -20 -457 -26 -41 -5 -53 -3 -54 8 0 7 -4 4 -9 -7 -7 -16 -9 -13 -9 18
l-1 37 263 0 c208 -1 267 -4 287 -15z m2008 -2 c-5 -25 -42 -30 -218 -32 -153
-1 -331 12 -353 26 -26 16 49 21 306 22 250 1 268 0 265 -16z m-1338 -198 l0
-125 -59 0 -60 0 -3 121 c-2 66 -1 123 1 125 2 2 31 4 63 4 l58 0 0 -125z
m302 0 l-3 -125 -60 0 -59 0 0 125 0 125 63 0 62 0 -3 -125z m-172 -5 l0 -120
-45 0 -45 0 0 120 0 120 45 0 45 0 0 -120z m-1151 -532 c0 -310 -4 -572 -9
-583 -5 -11 -9 -15 -9 -10 -1 6 -6 3 -11 -5 -6 -10 -10 187 -10 566 0 319 3
584 7 587 3 4 12 7 20 7 11 0 13 -100 12 -562z m131 496 c0 -52 -1 -55 -22
-52 -19 2 -24 10 -26 42 -4 49 3 66 28 66 18 0 20 -6 20 -56z m110 7 c0 -36
-4 -51 -16 -55 -22 -8 -24 -6 -31 37 -7 46 1 67 27 67 17 0 20 -6 20 -49z
m120 -6 c0 -47 -3 -55 -19 -55 -20 0 -31 25 -31 71 0 30 7 39 32 39 15 0 18
-8 18 -55z m1610 -1 c0 -52 -1 -55 -22 -52 -19 2 -24 10 -26 47 -2 28 1 47 10
52 30 19 38 9 38 -47z m108 -2 c3 -51 2 -53 -20 -50 -19 2 -24 10 -26 42 -4
49 3 68 25 64 14 -2 19 -15 21 -56z m122 -532 c-1 -362 -5 -590 -11 -590 -9 0
-13 31 -9 82 1 14 -3 29 -9 33 -8 4 -11 172 -11 536 0 525 0 529 20 529 20 0
21 -4 20 -590z m-2330 450 c0 -5 -4 -10 -9 -10 -5 0 -22 -5 -38 -11 -22 -8
-24 -12 -13 -19 10 -7 -1 -9 -35 -9 -47 2 -48 2 -15 8 41 8 -316 4 -502 -5
l-128 -7 0 31 0 32 370 0 c240 0 370 -4 370 -10z m3156 -12 c-3 -13 -6 -28 -6
-33 0 -7 -37 -8 -107 -3 -60 4 -217 10 -351 12 -171 3 -248 8 -258 17 -12 10
-12 14 -2 20 7 5 174 9 372 9 l358 0 -6 -22z m-4439 -40 c-3 -7 -5 -2 -5 12 0
14 2 19 5 13 2 -7 2 -19 0 -25z m5060 0 c-3 -8 -6 -5 -6 6 -1 11 2 17 5 13 3
-3 4 -12 1 -19z m-2631 -25 c-3 -8 -7 -63 -7 -121 -1 -59 -4 -97 -6 -84 -6 28
-49 31 -58 3 -3 -10 -14 -21 -25 -24 -18 -5 -19 3 -22 120 -2 69 -2 125 -1
126 1 1 29 0 63 -1 49 -3 60 -7 56 -19z m134 -108 l0 -125 -45 0 -45 0 0 125
0 125 45 0 45 0 0 -125z m168 13 c-2 -106 -2 -108 -5 -28 -3 58 -7 80 -13 70
-8 -12 -10 -11 -10 7 0 12 6 24 13 26 6 3 -12 6 -40 6 -47 1 -53 -1 -53 -20 0
-11 5 -17 10 -14 6 3 10 1 10 -4 0 -6 -4 -11 -10 -11 -5 0 -11 -39 -13 -87 -2
-73 -3 -67 -5 40 l-2 127 60 0 60 0 -2 -112z m-41 40 c-3 -7 -5 -2 -5 12 0 14
2 19 5 13 2 -7 2 -19 0 -25z m691 -66 c3 -50 2 -52 -22 -52 -24 0 -26 3 -26
49 0 47 10 63 35 57 6 -1 11 -26 13 -54z m112 -3 c0 -46 -2 -49 -25 -49 -23 0
-25 4 -25 43 0 46 14 69 36 60 9 -3 14 -22 14 -54z m-1950 -3 c0 -49 -2 -54
-20 -49 -17 4 -20 14 -20 54 0 42 3 49 20 49 18 0 20 -7 20 -54z m110 4 c0
-43 -3 -50 -20 -50 -17 0 -20 7 -20 50 0 43 3 50 20 50 17 0 20 -7 20 -50z
m120 0 c0 -47 -2 -50 -25 -50 -23 0 -25 3 -25 50 0 47 2 50 25 50 23 0 25 -3
25 -50z m-971 -19 c-1 -45 -11 -60 -36 -50 -19 7 -23 16 -23 48 0 29 4 41 18
43 25 6 42 -11 41 -41z m95 43 c18 -7 22 -69 7 -93 -18 -28 -41 -4 -41 42 0
54 5 62 34 51z m274 -28 c6 -46 -6 -76 -26 -69 -23 9 -32 23 -32 55 0 26 24
50 45 44 6 -1 11 -15 13 -30z m110 -19 c3 -48 3 -48 -25 -45 -25 3 -28 8 -31
42 -3 40 9 58 38 53 10 -1 16 -17 18 -50z m1709 -44 c-2 -21 -4 -6 -4 32 0 39
2 55 4 38 2 -18 2 -50 0 -70z m791 44 c3 -45 2 -47 -22 -47 -24 0 -26 4 -26
43 0 48 6 59 30 55 10 -2 16 -17 18 -51z m110 5 c3 -36 0 -43 -20 -51 -21 -8
-24 -5 -31 31 -9 43 4 71 32 66 11 -2 17 -16 19 -46z m362 23 c0 -76 -42 -105
-55 -38 -5 29 -3 40 10 49 19 14 45 8 45 -11z m-4100 5 c0 -5 -4 -10 -10 -10
-5 0 -10 5 -10 10 0 6 5 10 10 10 6 0 10 -4 10 -10z m2487 -12 c-3 -8 -6 -5
-6 6 -1 11 2 17 5 13 3 -3 4 -12 1 -19z m1498 11 c4 -6 4 -26 0 -45 -5 -29
-10 -35 -28 -32 -23 3 -35 43 -23 74 6 16 42 19 51 3z m-4018 -36 c-3 -10 -5
-4 -5 12 0 17 2 24 5 18 2 -7 2 -21 0 -30z m4760 15 c-3 -8 -6 -5 -6 6 -1 11
2 17 5 13 3 -3 4 -12 1 -19z m-419 -6 l67 1 -65 7 c-50 5 -29 7 86 8 128 2
151 0 151 -13 0 -13 -25 -15 -159 -15 -144 0 -158 2 -157 18 0 10 3 12 6 5 3
-9 26 -12 71 -11z m-4281 -24 c-3 -8 -6 -5 -6 6 -1 11 2 17 5 13 3 -3 4 -12 1
-19z m-50 -50 c-3 -7 -5 -2 -5 12 0 14 2 19 5 13 2 -7 2 -19 0 -25z m57 -4 c3
-8 2 -12 -4 -9 -6 3 -10 10 -10 16 0 14 7 11 14 -7z m4613 -26 c-3 -8 -6 -5
-6 6 -1 11 2 17 5 13 3 -3 4 -12 1 -19z m-2367 -48 c0 -6 -28 -10 -65 -10 -37
0 -65 4 -65 10 0 6 28 10 65 10 37 0 65 -4 65 -10z m130 0 c0 -5 -20 -10 -45
-10 -25 0 -45 5 -45 10 0 6 20 10 45 10 25 0 45 -4 45 -10z m160 0 c0 -5 -25
-10 -55 -10 -30 0 -55 5 -55 10 0 6 25 10 55 10 30 0 55 -4 55 -10z m-179 -40
c0 10 3 8 8 -5 12 -28 5 -35 -35 -35 -23 0 -34 5 -34 15 0 11 5 12 26 5 33
-13 44 -12 21 1 -9 6 -15 15 -11 21 4 6 10 5 15 -3 7 -12 9 -11 10 1z m-1753
-79 c3 -50 2 -52 -20 -49 -19 2 -24 10 -26 41 -3 39 12 71 32 64 6 -2 12 -27
14 -56z m111 45 c7 -8 11 -32 9 -53 -2 -31 -7 -39 -25 -41 -21 -3 -23 1 -23
46 0 62 14 79 39 48z m369 2 c7 -7 12 -32 12 -56 0 -41 -1 -43 -27 -40 -24 3
-28 8 -31 41 -4 53 20 81 46 55z m277 2 c3 -6 3 -30 -1 -55 -5 -34 -11 -45
-24 -45 -13 0 -19 10 -22 38 -3 20 -3 45 0 55 5 18 37 23 47 7z m109 -6 c3 -8
3 -33 0 -55 -5 -29 -11 -39 -25 -39 -16 0 -19 8 -19 55 0 47 3 55 19 55 10 0
22 -7 25 -16z m118 -34 c-4 -51 -12 -63 -35 -54 -13 5 -17 19 -17 56 0 48 1
49 28 46 26 -3 27 -5 24 -48z m1611 36 c3 -7 3 -32 0 -55 -5 -35 -9 -41 -29
-41 -22 0 -24 4 -24 48 0 27 3 52 7 55 11 12 41 8 46 -7z m115 -9 c8 -38 -8
-87 -27 -87 -11 0 -22 7 -25 16 -8 22 -8 79 1 88 13 13 48 1 51 -17z m376 17
c30 -12 17 -114 -15 -114 -16 0 -19 8 -19 53 0 64 5 72 34 61z m-2709 -54 c0
-39 -3 -45 -22 -48 -21 -3 -23 0 -23 48 0 48 2 51 23 48 19 -3 22 -9 22 -48z
m2610 -5 c0 -43 -3 -50 -21 -53 -18 -3 -23 4 -28 33 -10 50 0 77 27 73 19 -3
22 -9 22 -53z m357 5 c-3 -53 -15 -68 -37 -50 -15 13 -21 80 -8 94 4 4 16 6
28 4 17 -3 20 -9 17 -48z m108 0 c0 -27 -2 -50 -4 -50 -2 0 -11 -2 -19 -6 -11
-4 -16 7 -21 42 -7 53 -3 64 25 64 16 0 19 -7 19 -50z m-1617 -35 c32 -8 80
-26 107 -40 40 -20 50 -22 50 -10 0 13 27 15 195 15 181 0 217 -5 184 -26 -7
-4 -80 -8 -163 -8 -96 -1 -158 -6 -171 -14 -11 -6 -15 -12 -10 -12 6 0 4 -4
-4 -9 -10 -6 -39 4 -91 30 -80 41 -156 59 -219 53 -117 -13 -122 -15 -237 -87
-6 -3 -21 2 -33 12 -16 14 -46 19 -145 25 -69 4 -147 4 -175 0 -47 -6 -51 -5
-51 15 0 21 3 21 195 21 161 0 197 -3 201 -14 5 -12 17 -9 63 14 100 51 199
62 304 35z m26 -123 c65 -32 131 -108 154 -176 15 -43 15 -46 -2 -46 -11 0
-25 18 -40 51 -24 53 -43 61 -21 9 13 -32 5 -55 -10 -30 -7 10 -10 11 -10 3 0
-21 -18 -14 -25 10 -13 41 -53 84 -99 106 -119 56 -240 -12 -262 -146 -3 -24
-10 -43 -14 -43 -9 0 -31 25 -26 31 2 2 6 22 9 44 6 39 6 39 -9 15 l-15 -25 5
30 c6 28 4 27 -16 -10 -17 -31 -23 -36 -26 -22 -6 28 4 57 37 109 75 117 238
157 370 90z m-2085 -8 c28 -11 17 -24 -37 -49 -29 -14 -64 -36 -77 -50 -29
-31 -34 -31 -73 -3 -18 13 -34 23 -37 24 -3 0 -26 10 -52 22 -65 29 -63 46 4
40 46 -5 57 -11 88 -45 l35 -40 20 31 c21 32 79 76 101 76 7 0 19 -3 28 -6z
m3991 -18 c39 -17 70 -58 61 -83 -4 -11 2 -8 14 7 11 14 20 28 20 32 0 3 15
16 34 27 40 25 116 29 116 6 0 -8 -9 -15 -19 -15 -11 0 -23 -4 -26 -10 -3 -5
-13 -10 -21 -10 -9 0 -31 -12 -50 -26 -19 -15 -34 -23 -34 -18 0 4 -6 0 -13
-11 -14 -17 -15 -17 -34 2 -11 11 -24 22 -29 24 -30 13 -112 74 -108 81 8 12
51 9 89 -6z m-2437 -28 c-2 -15 -9 -21 -18 -19 -42 13 -113 12 -121 0 -6 -9
-9 -10 -9 -2 0 6 -3 18 -6 27 -5 14 5 16 76 16 79 0 81 -1 78 -22z m958 6 c-3
-9 -7 -41 -8 -72 -1 -36 -3 -45 -5 -24 -3 24 -9 32 -24 32 -14 0 -19 -7 -19
-27 0 -22 -2 -25 -10 -13 -8 13 -10 12 -10 -3 0 -13 -6 -17 -22 -15 -13 2 -26
8 -30 13 -5 6 -12 4 -18 -5 -7 -11 -10 -1 -10 35 0 28 -3 60 -6 73 -6 22 -5
22 81 22 75 0 86 -2 81 -16z m-2286 -19 c18 -22 3 -95 -20 -95 -18 0 -30 26
-30 71 0 40 26 53 50 24z m110 -40 c0 -48 -2 -55 -20 -55 -17 0 -20 7 -20 48
0 51 5 62 27 62 9 0 13 -16 13 -55z m259 41 c7 -8 11 -32 9 -53 -2 -31 -7 -39
-25 -41 -21 -3 -23 1 -23 46 0 62 14 79 39 48z m381 -41 c0 -47 -3 -55 -19
-55 -15 0 -20 9 -23 45 -4 56 -1 65 23 65 16 0 19 -7 19 -55z m108 -3 c3 -47
1 -52 -17 -52 -18 0 -21 6 -21 48 0 27 3 52 7 56 16 16 28 -4 31 -52z m120 0
c3 -50 2 -52 -22 -52 -24 0 -26 3 -26 48 0 53 6 64 30 60 11 -2 16 -18 18 -56z
m-490 1 c-3 -41 -6 -48 -25 -51 -21 -3 -23 0 -23 47 0 48 2 51 26 51 24 0 25
-2 22 -47z m2107 38 c3 -6 2 -28 -1 -51 -6 -34 -10 -41 -28 -38 -16 2 -22 11
-24 36 -2 19 -1 40 2 48 6 16 42 19 51 5z m105 -41 c0 -42 -3 -50 -19 -50 -22
0 -31 19 -31 66 0 30 3 34 25 34 23 0 25 -3 25 -50z m285 40 c4 -6 4 -29 0
-50 -5 -29 -12 -40 -25 -40 -20 0 -35 54 -24 84 7 18 39 22 49 6z m115 -24 c0
-47 -9 -66 -31 -66 -16 0 -19 8 -19 50 0 47 2 50 25 50 22 0 25 -4 25 -34z
m245 -16 c0 -36 -4 -45 -19 -48 -23 -5 -36 14 -36 54 0 37 7 46 35 42 17 -3
20 -10 20 -48z m105 0 c0 -43 -3 -50 -20 -50 -13 0 -22 9 -26 25 -10 38 3 75
26 75 17 0 20 -7 20 -50z m-4403 -31 c18 -12 42 -41 57 -70 l25 -50 14 28 c31
58 97 103 153 103 25 0 33 -14 11 -23 -6 -2 -39 -26 -71 -53 -33 -26 -56 -42
-51 -35 5 10 4 12 -3 7 -7 -4 -12 -13 -12 -20 0 -7 -9 -21 -20 -31 -11 -10
-20 -24 -20 -32 0 -7 -4 -13 -10 -13 -5 0 -10 9 -10 19 0 46 -132 179 -180
182 -10 0 -8 3 5 9 26 11 72 3 112 -21z m5477 25 c24 -9 19 -19 -18 -32 -49
-18 -126 -90 -145 -136 l-17 -40 -20 21 c-10 11 -31 38 -46 60 -17 25 -50 52
-90 74 -53 28 -59 34 -39 37 62 9 140 -36 177 -103 10 -18 13 -17 32 20 38 76
112 120 166 99z m-4659 -36 l20 -20 -39 5 c-44 7 -137 -10 -148 -27 -5 -7 -8
-8 -8 0 0 17 45 54 76 63 38 11 74 3 99 -21z m3880 -8 c14 -13 25 -26 25 -30
0 -4 -30 0 -67 8 -38 8 -83 15 -102 15 l-34 0 24 20 c33 27 119 20 154 -13z
m-4197 -10 c18 -11 30 -25 27 -31 -5 -7 -11 -6 -21 2 -7 6 -21 9 -29 5 -8 -3
-15 -1 -15 5 0 6 -4 8 -9 5 -4 -3 -34 -8 -67 -11 -55 -4 -57 -4 -35 11 52 37
104 41 149 14z m4491 5 c16 -8 31 -21 34 -29 5 -12 1 -13 -25 -4 -16 6 -59 8
-94 5 -69 -5 -80 3 -36 27 35 19 85 20 121 1z m-4390 -160 c0 -27 -4 -57 -9
-65 -7 -10 -9 14 -9 75 1 95 16 86 18 -10z m-688 75 c36 -10 88 -55 76 -66 -4
-4 -30 3 -58 16 -33 14 -66 20 -90 18 -31 -3 -36 -1 -26 10 10 12 41 30 57 31
3 1 21 -4 41 -9z m844 -4 c18 -8 39 -24 45 -36 11 -20 10 -21 -9 -10 -12 6
-50 13 -86 17 -64 6 -74 16 -31 33 30 12 42 12 81 -4z m3921 4 c15 -6 25 -13
22 -15 -4 -4 -70 -25 -123 -38 -5 -1 -16 -6 -22 -10 -22 -14 -14 8 10 30 47
43 69 49 113 33z m877 -19 c25 -24 16 -26 -48 -11 -32 7 -47 6 -77 -10 -33
-17 -48 -17 -48 1 0 4 15 17 33 28 41 27 109 23 140 -8z m-5065 8 c45 -15 33
-25 -39 -33 -36 -3 -70 -13 -81 -23 -23 -20 -23 -5 0 24 16 21 53 41 78 42 6
1 25 -4 42 -10z m4489 -16 c22 -14 50 -53 39 -53 -3 0 -20 9 -38 19 -18 11
-54 21 -81 24 -57 5 -68 13 -36 26 29 13 84 5 116 -16z m-2490 -40 c-3 -10 -5
-4 -5 12 0 17 2 24 5 18 2 -7 2 -21 0 -30z m-1532 -23 c3 -5 3 -32 -1 -60 -5
-40 -10 -50 -25 -50 -16 0 -19 8 -19 53 0 30 3 57 7 60 9 10 31 8 38 -3z m111
-5 c4 -8 3 -36 -1 -61 -5 -35 -10 -44 -23 -42 -12 2 -18 15 -20 47 -2 24 -1
50 2 57 7 19 35 18 42 -1z m262 -14 c7 -46 -7 -91 -28 -91 -17 0 -20 7 -20 53
0 30 3 57 7 61 14 14 38 0 41 -23z m110 -23 c2 -27 -1 -48 -7 -48 -5 0 -16 -3
-25 -6 -13 -5 -16 3 -16 51 0 53 1 56 23 53 19 -3 22 -10 25 -50z m490 -6 c3
-50 2 -52 -22 -52 -24 0 -26 3 -26 48 0 53 6 64 30 60 11 -2 16 -18 18 -56z
m1612 -2 c0 -53 -2 -60 -19 -60 -16 0 -21 9 -27 45 -8 55 -1 75 26 75 18 0 20
-6 20 -60z m113 47 c3 -7 3 -34 0 -58 -4 -34 -10 -46 -22 -46 -9 0 -19 5 -23
11 -10 14 -10 90 -1 99 11 12 41 8 46 -6z m282 -47 c0 -49 -2 -55 -22 -58 -21
-3 -23 0 -23 51 0 58 5 69 30 65 11 -3 15 -17 15 -58z m111 45 c4 -8 3 -35 0
-60 -6 -35 -11 -45 -26 -45 -15 0 -19 9 -22 50 -1 28 -1 55 0 60 6 16 42 12
48 -5z m249 -5 c4 -12 4 -39 0 -60 -5 -29 -12 -40 -25 -40 -18 0 -30 26 -30
71 0 45 43 68 55 29z m105 -35 c0 -47 -3 -55 -19 -55 -22 0 -31 19 -31 64 0
37 6 46 32 46 15 0 18 -8 18 -55z m-2690 21 c0 -50 -12 -86 -30 -86 -12 0 -19
11 -24 38 -11 66 -9 72 24 72 25 0 30 -4 30 -24z m100 -32 c0 -47 -3 -55 -17
-52 -14 2 -19 15 -21 56 -3 47 -1 52 17 52 19 0 21 -6 21 -56z m3701 8 c25
-10 59 -47 59 -64 0 -4 -16 4 -36 17 -20 14 -55 30 -78 35 -68 18 -74 21 -51
30 20 7 60 0 106 -18z m-5546 9 c27 -6 24 -8 -25 -15 -30 -4 -75 -16 -99 -27
-39 -17 -42 -17 -30 -1 7 9 14 19 15 20 5 7 79 31 94 30 8 0 29 -3 45 -7z
m271 -35 c19 -19 34 -39 34 -46 0 -7 -7 -4 -17 6 -23 22 -92 54 -120 54 -13 0
-23 5 -23 10 0 6 21 10 46 10 39 0 51 -5 80 -34z m5024 29 c0 -6 -59 -32 -90
-39 -33 -8 -56 -23 -47 -32 4 -4 15 0 25 9 10 10 22 17 27 17 4 0 -4 -9 -19
-21 -50 -39 -64 4 -15 45 23 19 42 26 75 26 24 0 44 -2 44 -5z m-2970 -54 c0
-14 -50 -20 -117 -14 -93 9 -76 23 27 23 50 0 90 -4 90 -9z m220 -1 c0 -6 -30
-10 -70 -10 -40 0 -70 4 -70 10 0 6 30 10 70 10 40 0 70 -4 70 -10z m480 -4
c0 -11 -17 -15 -65 -18 -36 -1 -65 -2 -65 -1 0 1 -3 8 -6 17 -5 14 4 16 65 16
55 0 71 -3 71 -14z m250 4 c0 -6 -35 -10 -85 -10 -50 0 -85 4 -85 10 0 6 35
10 85 10 50 0 85 -4 85 -10z m1734 -157 c158 -3 283 -9 279 -13 -9 -9 -1187
-29 -2138 -37 -709 -6 -2113 8 -2855 29 l-445 13 435 5 c680 8 4404 11 4724 3z
m659 -10 c-29 -2 -77 -2 -105 0 -29 2 -6 3 52 3 58 0 81 -1 53 -3z m-1223
-152 c80 -4 136 -9 125 -11 -11 -1 0 -6 25 -9 99 -14 -926 -26 -2135 -24
-1236 2 -1283 2 -1355 21 l-75 20 100 2 c55 2 192 6 305 10 249 9 2806 2 3010
-9z m-505 -148 c187 -4 325 -9 306 -13 -19 -3 -37 -11 -39 -19 -3 -9 0 -12 9
-9 8 3 23 2 34 -2 63 -23 -2974 -24 -3080 -1 l-40 9 35 2 35 3 -35 7 c-33 6
-34 7 -10 13 77 22 1895 28 2785 10z m275 -183 c7 -12 2 -17 -23 -24 -40 -11
-2741 -19 -2892 -9 -79 6 -109 12 -107 21 1 8 -13 13 -40 14 -160 8 605 15
1730 14 1164 -1 1324 -3 1332 -16z m47 4 c-3 -3 -12 -4 -19 -1 -8 3 -5 6 6 6
11 1 17 -2 13 -5z m780 -766 l-2 -623 -37 -77 c-47 -98 -115 -168 -206 -211
l-67 -32 -2040 0 -2040 0 -58 23 c-74 30 -164 114 -205 190 -61 113 -62 128
-62 770 l0 582 2359 0 2359 0 -1 -622z m-4779 125 c-1 -269 -3 -460 -5 -425
-3 52 -7 62 -22 62 -27 0 -30 43 -38 441 l-6 346 -171 6 c-265 10 -386 20
-351 28 28 6 29 7 5 9 -76 8 86 17 323 19 l267 1 -2 -487z m5422 479 l45 -7
-85 -18 c-122 -25 -129 -25 -302 -26 l-158 -1 -2 -517 c-1 -381 -3 -481 -9
-378 -4 77 -6 165 -3 195 4 47 3 52 -7 35 -7 -11 -13 -45 -12 -75 1 -38 -2
-49 -7 -35 -5 11 -9 30 -9 43 -1 12 -5 22 -11 22 -6 0 -11 -66 -13 -162 -1
-90 -4 83 -5 385 l-2 547 268 -1 c147 0 287 -4 312 -7z m-6047 -18 c-4 -11 -8
-12 -13 -4 -5 7 -17 9 -31 5 -19 -5 -21 -4 -9 4 24 17 60 14 53 -5z m5534
-1171 c-3 -10 -5 -2 -5 17 0 19 2 27 5 18 2 -10 2 -26 0 -35z m0 -45 c-3 -8
-6 -5 -6 6 -1 11 2 17 5 13 3 -3 4 -12 1 -19z m0 -110 c-2 -13 -4 -5 -4 17 -1
22 1 32 4 23 2 -10 2 -28 0 -40z m-60 -20 c-3 -8 -6 -5 -6 6 -1 11 2 17 5 13
3 -3 4 -12 1 -19z m-97 -342 c0 -2 -8 -10 -17 -17 -16 -13 -17 -12 -4 4 13 16
21 21 21 13z"/>
<path d="M2502 5825 c0 -16 2 -22 5 -12 2 9 2 23 0 30 -3 6 -5 -1 -5 -18z"/>
<path d="M2530 5780 c0 -11 2 -20 4 -20 2 0 6 9 9 20 3 11 1 20 -4 20 -5 0 -9
-9 -9 -20z"/>
<path d="M7603 5640 c0 -25 2 -35 4 -22 2 12 2 32 0 45 -2 12 -4 2 -4 -23z"/>
<path d="M4865 4621 c-3 -5 -2 -12 3 -15 5 -3 9 1 9 9 0 17 -3 19 -12 6z"/>
<path d="M3483 3455 c-203 -44 -333 -217 -321 -424 10 -179 131 -312 325 -357
93 -22 338 -15 401 11 l42 17 0 184 0 184 33 30 c37 34 27 36 -49 14 -41 -12
-90 -15 -208 -12 -137 3 -153 1 -146 -13 16 -29 95 -94 138 -113 l42 -19 0
-89 0 -88 -80 0 c-102 0 -172 25 -241 88 -67 60 -99 127 -99 207 0 76 25 130
80 178 106 91 297 95 421 10 28 -19 52 -33 54 -31 8 8 37 200 31 205 -3 4 -14
-1 -25 -11 -17 -15 -21 -15 -64 3 -96 41 -220 51 -334 26z"/>
<path d="M4376 3461 c-3 -5 10 -21 29 -35 19 -15 35 -34 35 -42 0 -9 -23 -66
-51 -127 -224 -485 -235 -505 -304 -548 l-30 -19 145 0 145 1 -24 19 c-29 25
-24 62 19 138 l30 52 149 0 148 0 36 -82 37 -82 -22 -23 -21 -23 163 0 163 0
-44 39 c-33 28 -57 65 -91 137 -95 201 -210 450 -226 491 -16 42 -16 43 12 71
23 25 25 30 11 36 -26 9 -303 7 -309 -3z m198 -348 l56 -113 -109 0 -109 0 40
93 c22 50 44 103 49 116 5 13 11 22 13 20 2 -2 29 -55 60 -116z"/>
<path d="M5167 3464 c-3 -4 10 -21 29 -39 l34 -32 0 -296 c0 -185 -4 -306 -11
-324 -5 -15 -22 -40 -37 -55 l-26 -28 202 0 c111 0 245 -5 299 -11 54 -6 107
-11 118 -12 16 -2 21 7 28 43 5 25 17 85 28 134 11 49 17 91 14 94 -2 3 -24
-13 -49 -36 -74 -69 -94 -75 -262 -83 -84 -3 -158 -10 -165 -15 -8 -5 -6 4 5
21 18 27 20 55 24 308 l5 278 28 21 c16 12 26 25 23 30 -6 9 -277 11 -287 2z"/>
<path d="M6205 3461 c-3 -5 8 -19 25 -31 22 -15 30 -30 30 -51 0 -31 -221
-511 -272 -592 -17 -27 -47 -59 -67 -73 l-36 -24 138 0 c75 0 137 4 137 9 0 5
-9 15 -20 22 -17 12 -19 19 -10 49 5 20 23 57 40 83 l30 47 148 0 148 0 39
-80 c37 -75 38 -80 22 -98 -9 -10 -17 -22 -17 -25 0 -4 73 -7 162 -7 l163 0
-38 31 c-51 42 -70 74 -172 290 -176 372 -182 390 -145 424 11 10 17 22 14 26
-7 12 -311 11 -319 0z m202 -344 l52 -112 -106 -3 c-58 -1 -107 -1 -109 1 -5
5 98 227 105 227 3 -1 29 -51 58 -113z"/>
<path d="M5578 2507 c-52 -13 -98 -66 -98 -115 0 -71 54 -124 125 -124 69 0
105 11 105 31 0 10 3 39 6 65 l7 47 -64 -3 c-56 -3 -64 -5 -64 -23 0 -15 8
-21 33 -23 28 -3 33 -7 30 -25 -3 -19 -9 -22 -42 -21 -100 4 -102 144 -3 144
18 0 38 -5 44 -11 8 -8 15 -4 27 12 14 21 14 24 0 32 -32 18 -70 23 -106 14z"/>
<path d="M3350 2390 l0 -120 25 0 c21 0 25 5 25 30 0 23 5 30 19 30 11 0 29
-13 41 -30 14 -19 30 -30 46 -30 29 0 30 4 4 40 l-20 29 25 25 c35 35 33 79
-4 117 -27 26 -36 29 -95 29 l-66 0 0 -120z m135 30 c0 -34 -1 -35 -42 -38
l-43 -3 0 41 0 41 43 -3 c41 -3 42 -4 42 -38z"/>
<path d="M3640 2390 l0 -120 80 0 c79 0 80 0 80 25 0 24 -3 25 -55 25 -53 0
-55 1 -55 26 0 25 2 26 45 22 41 -3 45 -1 45 19 0 21 -5 23 -45 23 -41 0 -45
2 -45 25 0 23 3 25 50 25 47 0 50 2 50 25 0 24 -2 25 -75 25 l-75 0 0 -120z"/>
<path d="M3905 2490 c-21 -23 -23 -64 -4 -86 8 -9 33 -25 56 -35 55 -24 58
-49 5 -49 -21 0 -44 6 -50 12 -10 10 -15 10 -22 -2 -19 -30 -11 -47 31 -59 74
-22 129 8 129 71 0 33 -18 52 -75 77 -62 27 -59 45 5 38 42 -5 51 -3 60 13 8
15 6 21 -9 30 -34 18 -106 12 -126 -10z"/>
<path d="M4184 2491 c-62 -38 -69 -135 -14 -189 101 -102 266 13 205 142 -30
63 -126 87 -191 47z m127 -49 c28 -23 30 -73 4 -102 -25 -28 -88 -27 -115 2
-26 28 -26 58 1 92 25 32 75 35 110 8z"/>
<path d="M4480 2390 l0 -120 25 0 c20 0 25 5 25 25 0 19 5 25 21 25 12 0 30
-11 41 -25 12 -15 30 -25 45 -25 25 0 25 1 9 23 -28 38 -28 44 -2 70 36 36 35
80 -3 118 -27 26 -36 29 -95 29 l-66 0 0 -120z m121 60 c41 -23 16 -70 -38
-70 -32 0 -33 1 -33 40 0 36 2 40 26 40 14 0 34 -5 45 -10z"/>
<path d="M4750 2485 c0 -22 4 -25 35 -25 l35 0 0 -95 c0 -95 0 -95 25 -95 25
0 25 0 25 95 l0 95 35 0 c31 0 35 3 35 25 0 25 0 25 -95 25 -95 0 -95 0 -95
-25z"/>
<path d="M5041 2484 c-12 -15 -21 -32 -21 -38 0 -22 32 -56 71 -76 65 -34 41
-74 -26 -45 -33 13 -36 13 -46 -7 -9 -18 -8 -24 6 -35 51 -37 148 -18 161 31
9 36 -17 72 -71 97 -51 24 -60 49 -17 49 15 0 34 -4 42 -9 10 -7 18 -4 29 11
13 19 12 22 -4 34 -10 8 -38 14 -61 14 -34 0 -47 -5 -63 -26z"/>
<path d="M5820 2390 l0 -120 25 0 c21 0 25 5 25 30 0 23 5 30 19 30 11 0 28
-13 38 -30 13 -22 25 -30 45 -30 34 0 34 3 6 40 l-21 30 26 24 c37 34 37 88 1
121 -23 22 -37 25 -95 25 l-69 0 0 -120z m128 58 c32 -32 -3 -72 -56 -66 -28
3 -40 32 -28 64 7 17 67 19 84 2z"/>
<path d="M6149 2495 c-39 -21 -59 -59 -59 -109 0 -111 139 -165 219 -86 54 54
49 134 -10 185 -35 29 -106 34 -150 10z m121 -55 c33 -33 30 -75 -6 -107 -33
-30 -69 -29 -99 2 -30 30 -32 64 -4 99 26 33 79 36 109 6z"/>
<path d="M6430 2421 c0 -81 2 -92 26 -120 32 -38 80 -49 122 -27 45 23 52 43
52 145 l0 91 -26 0 -26 0 7 -67 c9 -91 -3 -123 -48 -123 -50 0 -57 14 -57 107
0 82 0 83 -25 83 -25 0 -25 -1 -25 -89z"/>
<path d="M6732 2388 l3 -123 25 0 c22 0 25 5 28 36 3 34 6 38 47 48 43 11 85
49 85 77 0 26 -23 62 -47 73 -13 6 -51 11 -84 11 l-60 0 3 -122z m123 37 c0
-27 -4 -30 -32 -33 -32 -3 -33 -2 -33 33 0 35 1 36 33 33 28 -3 32 -6 32 -33z"/>
<path d="M2851 2407 c-25 -31 11 -38 190 -35 166 3 174 4 174 23 0 19 -8 20
-176 23 -141 2 -178 0 -188 -11z"/>
<path d="M7041 2411 c-8 -5 -11 -16 -8 -25 6 -14 22 -16 109 -14 95 3 103 4
103 23 0 18 -8 20 -95 23 -52 1 -101 -2 -109 -7z"/>
<path d="M2611 2894 c0 -11 3 -14 6 -6 3 7 2 16 -1 19 -3 4 -6 -2 -5 -13z"/>
<path d="M7533 2975 c0 -22 2 -30 4 -17 2 12 2 30 0 40 -3 9 -5 -1 -4 -23z"/>
</g>
</svg>
